<svg xmlns="http://www.w3.org/2000/svg" width="154" height="158" viewBox="0 0 154 158" version="1.1"><path d="M 1 49.500 L 1 96 45.500 96 L 90 96 90 49.500 L 90 3 45.500 3 L 1 3 1 49.500 M 2 49.500 L 2 95 45.500 95 L 89 95 89 49.500 L 89 4 45.500 4 L 2 4 2 49.500 M 105.231 72.250 L 105 96 128.750 95.769 L 152.500 95.539 129.268 95.251 L 106.037 94.963 105.749 71.732 L 105.461 48.500 105.231 72.250 M 43.231 132.250 L 43 156 66.500 156 L 90 156 89.769 132.250 L 89.539 108.500 89.251 131.750 L 88.963 155 66.500 155 L 44.037 155 43.749 131.750 L 43.461 108.500 43.231 132.250 M 105.231 132.250 L 105 156 128.750 155.769 L 152.500 155.539 129.268 155.251 L 106.037 154.963 105.749 131.732 L 105.461 108.500 105.231 132.250" stroke="none" fill="#e4e4e4" fill-rule="evenodd"/><path d="M 2 49.500 L 2 95 45.500 95 L 89 95 89 49.500 L 89 4 45.500 4 L 2 4 2 49.500 M 106 72 L 106 95 129 95 L 152 95 152 72 L 152 49 129 49 L 106 49 106 72 M 44 132 L 44 155 66.500 155 L 89 155 89 132 L 89 109 66.500 109 L 44 109 44 132 M 106 132 L 106 155 129 155 L 152 155 152 132 L 152 109 129 109 L 106 109 106 132" stroke="none" fill="#dcdcdc" fill-rule="evenodd"/></svg>