<svg xmlns="http://www.w3.org/2000/svg" width="200" height="200" viewBox="0 0 200 200" version="1.1"><path d="M 131.376 20.086 L 128.252 20.992 127.041 22.450 L 125.831 23.909 128.884 23.033 L 131.937 22.158 134.191 20.579 L 136.445 19 135.473 19.090 L 134.500 19.180 131.376 20.086 M 45 96.086 L 38.500 98.059 29 100.898 L 19.500 103.736 11.500 105.986 L 3.500 108.236 2.500 109.230 L 1.500 110.225 3.500 109.657 L 5.500 109.088 16.648 107.563 L 27.796 106.038 40.599 103.984 L 53.403 101.930 53.822 101.512 L 54.240 101.093 53.575 97.547 L 52.909 94 52.205 94.056 L 51.500 94.112 45 96.086 M 59.971 128.603 L 42.500 138.163 36.174 141.673 L 29.849 145.182 30.275 145.609 L 30.702 146.035 40.601 142.128 L 50.500 138.220 61.089 134.144 L 71.678 130.067 76.334 128.071 L 80.991 126.075 79.806 123.287 L 78.620 120.500 78.031 119.771 L 77.442 119.042 59.971 128.603 M 87.717 151.750 L 79.122 164.500 71.615 175.471 L 64.109 186.442 64.565 186.898 L 65.021 187.354 66.260 185.774 L 67.500 184.195 75.500 174.929 L 83.500 165.664 90.932 157.082 L 98.363 148.500 100.249 146.363 L 102.136 144.227 99.522 141.613 L 96.909 139 96.611 139 L 96.312 139 87.717 151.750" stroke="none" fill="#5106f2" fill-rule="evenodd"/><path d="M 134.027 14.824 L 121.555 17.500 120.243 22.164 L 118.932 26.829 115.095 30.295 L 111.257 33.762 110.564 41.160 L 109.871 48.557 113.887 55.431 L 117.904 62.304 118.952 63.352 L 120 64.400 120 56.735 L 120 49.070 121.750 48.172 L 123.500 47.274 127.751 46.625 L 132.003 45.976 138.057 54.238 L 144.111 62.500 139.805 63.302 L 135.500 64.103 134.207 64.537 L 132.914 64.970 133.903 66.819 L 134.892 68.667 129.196 69.769 L 123.500 70.872 81.081 80.438 L 38.662 90.005 38.081 90.632 L 37.500 91.260 48 90.640 L 58.500 90.021 76 89.451 L 93.500 88.882 92 89.806 L 90.500 90.729 72 98.511 L 53.500 106.293 52.500 107.259 L 51.500 108.225 53.500 107.651 L 55.500 107.078 77.862 101.984 L 100.223 96.890 100.540 97.206 L 100.856 97.522 82.426 109.426 L 63.997 121.330 64.355 121.689 L 64.714 122.047 83.607 113.943 L 102.500 105.839 106 104.402 L 109.500 102.964 99.500 112.220 L 89.500 121.475 84 126.837 L 78.500 132.199 80 131.392 L 81.500 130.584 97 120.470 L 112.500 110.356 114 109.506 L 115.500 108.656 113.918 110.578 L 112.336 112.500 105.384 121 L 98.432 129.500 94.466 134.500 L 90.500 139.500 92.500 138.006 L 94.500 136.513 107.500 125 L 120.500 113.487 122.456 111.994 L 124.413 110.500 122.302 114 L 120.191 117.500 113.026 129.847 L 105.862 142.195 106.207 142.541 L 106.553 142.887 118.516 127.854 L 130.479 112.822 131.171 112.395 L 131.862 111.967 128.048 121.734 L 124.235 131.500 121.619 137.918 L 119.003 144.337 119.372 144.705 L 119.741 145.074 129.370 128.287 L 139 111.500 138.963 112.500 L 138.927 113.500 135.540 127.993 L 132.153 142.486 132.553 142.886 L 132.953 143.286 133.642 141.393 L 134.331 139.500 139.605 126 L 144.879 112.500 144.937 114.500 L 144.994 116.500 143.988 125.500 L 142.983 134.500 142.534 137.874 L 142.086 141.248 142.609 140.725 L 143.132 140.201 147.566 122.853 L 152 105.506 152 105.253 L 152 105 153.878 105 L 155.756 105 157.193 107.165 L 158.631 109.330 168.565 107.316 L 178.500 105.302 189.250 115.884 L 200 126.466 199.984 81.983 L 199.967 37.500 175.754 25 L 151.540 12.500 149.020 12.324 L 146.500 12.147 134.027 14.824 M 131.376 20.086 L 128.252 20.992 127.041 22.450 L 125.831 23.909 128.884 23.033 L 131.937 22.158 134.191 20.579 L 136.445 19 135.473 19.090 L 134.500 19.180 131.376 20.086" stroke="none" fill="#f8f8f8" fill-rule="evenodd"/></svg>